<svg width="24" height="24" viewBox="0 0 24 24" fill="none" xmlns="http://www.w3.org/2000/svg">
<rect width="24" height="24" fill="#141D33"/>
<path d="M17.9053 16.8312C16.9285 16.8312 16.0485 16.6288 15.2653 16.224C14.4821 15.8104 13.8661 15.2384 13.4173 14.508C12.9773 13.7688 12.7573 12.9328 12.7573 12C12.7573 11.0672 12.9773 10.2356 13.4173 9.50522C13.8661 8.76602 14.4821 8.19402 15.2653 7.78922C16.0485 7.37562 16.9285 7.16882 17.9053 7.16882C18.8029 7.16882 19.6037 7.32722 20.3077 7.64402C21.0117 7.96082 21.5925 8.41842 22.0501 9.01682L20.0833 10.7724C19.5113 10.0508 18.8381 9.69002 18.0637 9.69002C17.4125 9.69002 16.8889 9.90122 16.4929 10.3236C16.0969 10.7372 15.8989 11.296 15.8989 12C15.8989 12.704 16.0969 13.2672 16.4929 13.6896C16.8889 14.1032 17.4125 14.31 18.0637 14.31C18.8381 14.31 19.5113 13.9492 20.0833 13.2276L22.0501 14.9832C21.5925 15.5816 21.0117 16.0392 20.3077 16.356C19.6037 16.6728 18.8029 16.8312 17.9053 16.8312Z" fill="white"/>
<path fill-rule="evenodd" clip-rule="evenodd" d="M9.22529 15.897L12.8268 7.38H9.76435L7.76605 12.1596L9.22529 15.897ZM5.45571 7.75463L5.30275 7.38H1.94995L5.85715 16.62H8.91717L5.45571 7.75463Z" fill="white"/>
</svg>
