<svg width="16" height="16" viewBox="0 0 16 16" fill="none" xmlns="http://www.w3.org/2000/svg">
<rect width="16" height="16" fill="#141D33"/>
<path d="M11.9369 11.2208C11.2857 11.2208 10.699 11.0858 10.1769 10.816C9.65475 10.5402 9.24408 10.1589 8.94488 9.67197C8.65155 9.17917 8.50488 8.62184 8.50488 7.99998C8.50488 7.37811 8.65155 6.82371 8.94488 6.33677C9.24408 5.84397 9.65475 5.46264 10.1769 5.19277C10.699 4.91704 11.2857 4.77917 11.9369 4.77917C12.5353 4.77917 13.0691 4.88477 13.5385 5.09597C14.0078 5.30717 14.395 5.61224 14.7001 6.01117L13.3889 7.18158C13.0076 6.70051 12.5588 6.45997 12.0425 6.45997C11.6083 6.45997 11.2593 6.60077 10.9953 6.88237C10.7313 7.15811 10.5993 7.53064 10.5993 7.99998C10.5993 8.46931 10.7313 8.84477 10.9953 9.12637C11.2593 9.40211 11.6083 9.53997 12.0425 9.53997C12.5588 9.53997 13.0076 9.29944 13.3889 8.81838L14.7001 9.98877C14.395 10.3877 14.0078 10.6928 13.5385 10.904C13.0691 11.1152 12.5353 11.2208 11.9369 11.2208Z" fill="white"/>
<path fill-rule="evenodd" clip-rule="evenodd" d="M6.15002 10.5979L8.55101 4.91992H6.50941L5.17719 8.10634L6.15002 10.5979ZM3.63638 5.16819L3.535 4.91992H1.2998L3.9046 11.0799H5.94459L3.63638 5.16819Z" fill="white"/>
</svg>
