<svg width="32" height="32" viewBox="0 0 32 32" fill="none" xmlns="http://www.w3.org/2000/svg">
<rect width="32" height="32" fill="#141D33"/>
<path d="M23.8738 22.4417C22.5714 22.4417 21.398 22.1718 20.3538 21.6321C19.3095 21.0806 18.4882 20.3179 17.8898 19.3441C17.3031 18.3585 17.0098 17.2438 17.0098 16.0001C17.0098 14.7563 17.3031 13.6475 17.8898 12.6737C18.4882 11.6881 19.3095 10.9254 20.3538 10.3857C21.398 9.8342 22.5714 9.55847 23.8738 9.55847C25.0706 9.55847 26.1383 9.76967 27.077 10.1921C28.0156 10.6145 28.79 11.2246 29.4002 12.0225L26.7778 14.3633C26.0151 13.4011 25.1175 12.9201 24.085 12.9201C23.2167 12.9201 22.5186 13.2017 21.9906 13.7649C21.4626 14.3163 21.1986 15.0614 21.1986 16.0001C21.1986 16.9387 21.4626 17.6897 21.9906 18.2529C22.5186 18.8043 23.2167 19.0801 24.085 19.0801C25.1175 19.0801 26.0151 18.599 26.7778 17.6369L29.4002 19.9777C28.79 20.7755 28.0156 21.3857 27.077 21.8081C26.1383 22.2305 25.0706 22.4417 23.8738 22.4417Z" fill="white"/>
<path fill-rule="evenodd" clip-rule="evenodd" d="M12.3003 21.1959L17.1023 9.83997H13.0191L10.3547 16.2127L12.3003 21.1959ZM7.27436 10.3398L7.07025 9.83997H2.59985L7.80945 22.16H11.8895L7.27436 10.3398Z" fill="white"/>
</svg>
