<svg width="32" height="32" viewBox="0 0 32 32" fill="none" xmlns="http://www.w3.org/2000/svg">
<g clip-path="url(#clip0_30033_24611)">
<path d="M32 0H0V32H32V0Z" fill="#2346FF"/>
<path d="M27.2889 19.5347C27.7037 19.1198 27.7037 18.4472 27.2889 18.0323C26.874 17.6175 26.2014 17.6175 25.7865 18.0323C25.3716 18.4472 25.3716 19.1198 25.7865 19.5347C26.2014 19.9496 26.874 19.9496 27.2889 19.5347Z" fill="#FFB400"/>
<path fill-rule="evenodd" clip-rule="evenodd" d="M21.845 14.0023C23.2385 14.0023 24.3971 15.0398 24.6338 16.407C24.6629 16.5749 24.678 16.7477 24.678 16.9242C24.678 18.5377 23.4095 19.8456 21.845 19.8456C21.3272 19.8453 20.826 19.6632 20.4287 19.3313V22.0592H18.658V14.2678H20.2515V14.749C20.4469 14.5163 20.6906 14.3288 20.9658 14.1999C21.241 14.0709 21.541 14.0034 21.845 14.0023ZM21.6677 15.6315C20.9835 15.6315 20.4287 16.21 20.4287 16.9242C20.4287 17.6384 20.9841 18.2169 21.6677 18.2169C22.3525 18.2169 22.9073 17.6384 22.9073 16.9242C22.9073 16.21 22.3519 15.6315 21.6677 15.6315Z" fill="white"/>
<path d="M11.5745 13.2765H9.27266V19.5801H7.50188V13.2765H5.20001V11.7887H11.5745V13.2765Z" fill="white"/>
<path d="M17.4184 19.5801H15.6477V14.2678H17.4184V19.5801Z" fill="white"/>
<path d="M14.4076 14.2405C14.5263 14.2415 14.6447 14.2508 14.7621 14.2684V15.8934C14.6709 15.8746 14.578 15.8646 14.4849 15.8635C13.6634 15.8635 12.9971 16.4351 12.9971 17.3507V19.579H11.2206V14.2673H12.8141V15.1088C12.9859 14.8424 13.2218 14.6233 13.5002 14.4716C13.7786 14.3199 14.0906 14.2405 14.4076 14.2405Z" fill="white"/>
<path d="M16.5328 11.541C17.0806 11.541 17.5246 11.9851 17.5246 12.5329C17.5246 13.0807 17.0806 13.5247 16.5328 13.5247C15.985 13.5247 15.5409 13.0807 15.5409 12.5329C15.5409 11.9851 15.985 11.541 16.5328 11.541Z" fill="white"/>
</g>
<defs>
<clipPath id="clip0_30033_24611">
<rect width="32" height="32" fill="white"/>
</clipPath>
</defs>
</svg>
