<svg width="80" height="80" viewBox="0 0 80 80" fill="none" xmlns="http://www.w3.org/2000/svg">
<g clip-path="url(#clip0_12_1391)">
<path d="M80 0H0V80H80V0Z" fill="#E8363E"/>
<path d="M49.3806 42.5735C49.4857 41.8189 49.537 41.0577 49.534 40.2957C49.5346 39.5499 49.4873 38.8049 49.3924 38.0652H52.9329V42.5735H49.3806ZM32.2796 47.8962C30.7763 47.8962 29.3069 47.4504 28.057 46.6153C26.8071 45.7801 25.8329 44.5931 25.2577 43.2043C24.6824 41.8155 24.5319 40.2873 24.8252 38.813C25.1184 37.3386 25.8423 35.9844 26.9052 34.9214C27.9682 33.8585 29.3224 33.1346 30.7968 32.8413C32.2711 32.5481 33.7993 32.6986 35.1881 33.2738C36.5769 33.8491 37.764 34.8233 38.5991 36.0732C39.4343 37.323 39.88 38.7925 39.88 40.2957C39.8816 41.2943 39.686 42.2833 39.3046 43.2061C38.9232 44.129 38.3634 44.9675 37.6574 45.6735C36.9513 46.3796 36.1128 46.9394 35.19 47.3208C34.2671 47.7022 33.2781 47.8977 32.2796 47.8962ZM57.9488 23.0413C56.608 23.0413 55.322 23.5731 54.3728 24.5201C53.4237 25.467 52.8889 26.7518 52.8857 28.0925V29.2727H45.5803C43.3168 26.5314 40.2623 24.5556 36.834 23.6152C33.4056 22.6747 29.7705 22.8154 26.4251 24.018C23.0797 25.2207 20.187 27.4267 18.1422 30.3348C16.0973 33.2428 15 36.7112 15 40.2662C15 43.8213 16.0973 47.2896 18.1422 50.1977C20.187 53.1058 23.0797 55.3118 26.4251 56.5144C29.7705 57.7171 33.4056 57.8578 36.834 56.9173C40.2623 55.9768 43.3168 54.001 45.5803 51.2597H52.8857V57.5266H63V28.0217C62.9814 26.6944 62.441 25.4277 61.4957 24.4957C60.5504 23.5636 59.2763 23.0412 57.9488 23.0413Z" fill="white"/>
</g>
<defs>
<clipPath id="clip0_12_1391">
<rect width="80" height="80" fill="white"/>
</clipPath>
</defs>
</svg>
